<svg width="100" height="100" viewBox="0 0 100 100" fill="none" xmlns="http://www.w3.org/2000/svg">
<g clip-path="url(#clip0_8118_2)">
<path fill-rule="evenodd" clip-rule="evenodd" d="M64.86 10C68.5437 10 72.4354 11.2873 76.0003 12.7083L78.6096 13.7778C84.8482 16.3921 88.3537 21.8781 91.0719 27.9038C95.4835 37.6825 98.5483 50.7191 99.6079 60.6316C100.113 65.3353 100.237 70.0687 99.3306 73.2523C98.3552 76.6538 95.0379 79.0602 91.8146 80.9515L90.2203 81.8576L88.5666 82.7785C87.715 83.2539 86.8386 83.7242 85.9672 84.1847L83.3826 85.5215L79.8326 87.2891L76.9757 88.6953C76.3921 89.01 75.7511 89.2043 75.091 89.2666C74.4308 89.329 73.7649 89.2581 73.1327 89.0581C72.5004 88.8582 71.9148 88.5333 71.4106 88.1027C70.9063 87.6721 70.4936 87.1447 70.1971 86.5516C69.9005 85.9585 69.7261 85.3119 69.6842 84.6501C69.6424 83.9884 69.7338 83.3249 69.9532 82.6992C70.1726 82.0734 70.5154 81.4981 70.9614 81.0074C71.4073 80.5167 71.9473 80.1205 72.5493 79.8425L76.4608 77.9115L73.589 74.8961C66.7068 77.7184 58.6016 79.3176 49.9913 79.3176C41.3811 79.3176 33.2759 77.7233 26.3936 74.8961L23.5219 77.9065L27.4483 79.8375C28.0302 80.1281 28.5492 80.5306 28.9756 81.0218C29.402 81.513 29.7275 82.0834 29.9335 82.7004C30.1395 83.3174 30.2219 83.9689 30.1761 84.6178C30.1302 85.2667 29.9571 85.9002 29.6664 86.4821C29.3758 87.064 28.9734 87.583 28.4821 88.0094C27.9909 88.4358 27.4205 88.7613 26.8035 88.9673C25.5574 89.3833 24.1971 89.2872 23.0218 88.7002L20.3283 87.3634C18.3379 86.3732 16.3426 85.3928 14.372 84.358L9.77722 81.8576L8.18786 80.9515C4.9646 79.0602 1.6423 76.6538 0.671856 73.2523C-0.239176 70.0687 -0.110443 65.3402 0.389634 60.6266C1.4492 50.7192 4.51403 37.6825 8.9256 27.9038C11.6438 21.8781 15.1493 16.3921 21.3879 13.7778C25.5272 12.0449 30.5428 10 35.1376 10C38.1232 10 40.4701 12.7479 40.0393 15.6791C43.3342 15.1916 46.6606 14.9483 49.9913 14.9513C53.4127 14.9513 56.7548 15.1988 59.9632 15.684C59.8678 14.9809 59.9228 14.2655 60.1246 13.5852C60.3264 12.905 60.6704 12.2753 61.1338 11.7379C61.5972 11.2006 62.1694 10.7678 62.8126 10.4682C63.4559 10.1686 64.1504 10.009 64.86 10ZM33.8997 42.1832C31.6017 42.1832 29.3978 43.0961 27.7729 44.721C26.1479 46.346 25.235 48.5499 25.235 50.8479C25.235 53.1459 26.1479 55.3498 27.7729 56.9748C29.3978 58.5997 31.6017 59.5126 33.8997 59.5126C36.1978 59.5126 38.4017 58.5997 40.0266 56.9748C41.6516 55.3498 42.5644 53.1459 42.5644 50.8479C42.5644 48.5499 41.6516 46.346 40.0266 44.721C38.4017 43.0961 36.1978 42.1832 33.8997 42.1832ZM66.0829 42.1832C63.7849 42.1832 61.581 43.0961 59.9561 44.721C58.3311 46.346 57.4182 48.5499 57.4182 50.8479C57.4182 53.1459 58.3311 55.3498 59.9561 56.9748C61.581 58.5997 63.7849 59.5126 66.0829 59.5126C68.3809 59.5126 70.5848 58.5997 72.2098 56.9748C73.8347 55.3498 74.7476 53.1459 74.7476 50.8479C74.7476 48.5499 73.8347 46.346 72.2098 44.721C70.5848 43.0961 68.3809 42.1832 66.0829 42.1832Z" fill="#F3F1E5"/>
</g>
<defs>
<clipPath id="clip0_8118_2">
<rect width="100" height="100" fill="white"/>
</clipPath>
</defs>
</svg>
