<svg width="100" height="100" viewBox="0 0 100 100" fill="none" xmlns="http://www.w3.org/2000/svg">
<path d="M45.0082 74.0416C45.3929 74.0422 45.7736 74.1185 46.1288 74.2662C46.484 74.4139 46.8066 74.6301 47.0782 74.9025C47.3498 75.1749 47.5651 75.4981 47.7118 75.8537C47.8585 76.2093 47.9337 76.5903 47.9332 76.9749C47.9326 77.3596 47.8563 77.7404 47.7086 78.0956C47.5609 78.4507 47.3447 78.7733 47.0723 79.045C46.7999 79.3166 46.4767 79.5319 46.1211 79.6786C45.7655 79.8253 45.3845 79.9005 44.9999 79.8999C44.223 79.8988 43.4784 79.5892 42.9298 79.0391C42.3813 78.489 42.0738 77.7435 42.0749 76.9666C42.076 76.1897 42.3856 75.4451 42.9357 74.8966C43.4858 74.3481 44.2313 74.0405 45.0082 74.0416ZM90.9415 55.9291C90.5569 55.9288 90.176 55.8528 89.8207 55.7053C89.4655 55.5579 89.1427 55.3419 88.8709 55.0697C88.5991 54.7975 88.3836 54.4744 88.2366 54.119C88.0897 53.7635 88.0142 53.3825 88.0144 52.9979C88.0147 52.6132 88.0908 52.2324 88.2382 51.8771C88.3857 51.5218 88.6017 51.199 88.8738 50.9272C89.146 50.6554 89.4691 50.4399 89.8246 50.2929C90.1801 50.146 90.561 50.0705 90.9457 50.0708C91.7225 50.0713 92.4674 50.3805 93.0163 50.9302C93.5652 51.4799 93.8733 52.2252 93.8728 53.002C93.8722 53.7789 93.5631 54.5237 93.0134 55.0726C92.4636 55.6216 91.7184 55.9297 90.9415 55.9291ZM90.9415 43.9458C88.5398 43.948 86.237 44.903 84.5387 46.6013C82.8405 48.2996 81.8854 50.6024 81.8832 53.0041C81.8832 53.9749 82.0457 54.9416 82.3624 55.8833L52.4415 71.8124C51.6119 70.6078 50.5017 69.623 49.2068 68.9428C47.9118 68.2627 46.4709 67.9076 45.0082 67.9083C41.554 67.9083 38.4082 69.8874 36.8832 72.9749L10.004 58.7999C7.16236 57.3083 5.03736 52.6333 5.26236 48.3749C5.37903 46.1541 6.1457 44.4291 7.31653 43.7624C8.0582 43.3458 8.94986 43.3791 9.89986 43.8749L10.0749 43.9708C17.1999 47.7208 40.5082 59.9999 41.4915 60.4541C43.004 61.1583 43.8457 61.4416 46.429 60.2166L94.6124 35.1583C95.3207 34.8916 96.1457 34.2124 96.1457 33.1833C96.1457 31.7583 94.6707 31.1958 94.6665 31.1958C91.9249 29.8833 87.7124 27.9124 83.604 25.9874C74.8207 21.8749 64.8665 17.2166 60.4957 14.9249C56.7207 12.9499 53.6832 14.6166 53.1415 14.9499L52.0915 15.4708C32.4165 25.1999 6.0832 38.2416 4.5832 39.1541C1.90403 40.7874 0.241529 44.0416 0.0248624 48.0791C-0.308471 54.4833 2.95403 61.1624 7.62486 63.6083L36.0499 78.2666C36.363 80.4198 37.4404 82.3885 39.0852 83.813C40.7299 85.2374 42.8323 86.0226 45.0082 86.0249C47.3846 86.0209 49.6645 85.0845 51.3576 83.4171C53.0508 81.7496 54.022 79.4843 54.0624 77.1083L85.3707 60.1374C86.954 61.3791 88.9249 62.0583 90.9415 62.0583C93.3433 62.0561 95.646 61.101 97.3443 59.4027C99.0426 57.7044 99.9977 55.4017 99.9999 52.9999C99.9977 50.5982 99.0426 48.2955 97.3443 46.5972C95.646 44.8989 93.3433 43.9438 90.9415 43.9416" fill="#F3F1E5"/>
</svg>
