<svg width="100" height="100" viewBox="0 0 100 100" fill="none" xmlns="http://www.w3.org/2000/svg">
<path d="M100 49.5714C100 62.7857 97.8571 73.5 95 73.5C92.1429 73.5 90 62.7857 90 49.5714C90 36.3571 92.1429 25.6429 95 25.6429C97.8571 25.6429 100 36.3571 100 49.5714ZM87.5 49.5714C87.5 64.2143 81.0714 76.3571 73.5714 76.3571C66.0714 76.3571 59.6429 64.2143 59.6429 49.5714C59.6429 34.9286 66.0714 22.7857 73.5714 22.7857C81.0714 22.7857 87.5 34.9286 87.5 49.5714ZM56.4286 49.5714C56.4286 65.2857 43.9286 78.1429 28.2143 78.1429C12.5 78.1429 0 65.2857 0 49.5714C0 33.8571 12.5 21 28.2143 21C43.9286 21 56.4286 33.8571 56.4286 49.5714Z" fill="#F3F1E5"/>
</svg>
