<svg width="100" height="100" viewBox="0 0 100 100" fill="none" xmlns="http://www.w3.org/2000/svg">
<path d="M50 0C36.7392 0 24.0215 5.26784 14.6447 14.6447C5.26784 24.0215 0 36.7392 0 50C0 63.2608 5.26784 75.9785 14.6447 85.3553C24.0215 94.7322 36.7392 100 50 100C63.2608 100 75.9785 94.7322 85.3553 85.3553C94.7322 75.9785 100 63.2608 100 50C100 36.7392 94.7322 24.0215 85.3553 14.6447C75.9785 5.26784 63.2608 0 50 0ZM69.2222 66.3889C69.2222 74.5556 64.7778 84.7222 46.6667 92.5C48.3333 69.3333 32.6667 72 28.8889 64.7222C29.2329 61.7114 30.3293 58.8356 32.0769 56.3598C33.8245 53.8841 36.1671 51.888 38.8889 50.5556C30.2676 49.0768 22.2274 45.2298 15.6667 39.4444C15.9444 42.0556 17.2167 44.4667 19.2222 46.1667C14.8773 44.5289 11.1231 41.6262 8.44444 37.8333C11.0932 29.0911 16.3907 21.3868 23.6054 15.7842C30.8202 10.1815 39.5964 6.95692 48.7222 6.55556C44.0556 14.2222 40.3889 29.5 48.7222 37.5C40.1667 38.8889 34.7778 27.7778 30.0556 32.1667C23.7778 38.0556 31.8889 46.1111 49.0556 49.2778C67.3333 52.5556 69.3889 58.0556 69.2222 66.3889ZM76.6667 44.1667C74.8889 38 80.1111 31.7778 86.0556 26.7222C89.7679 32.0734 92.1311 38.2431 92.9437 44.705C93.7563 51.167 92.9941 57.7296 90.7222 63.8333C86.4444 53.3333 78.6667 50.9444 76.6667 44V44.1667Z" fill="#F3F1E5"/>
</svg>
