<svg width="100" height="100" viewBox="0 0 100 100" fill="none" xmlns="http://www.w3.org/2000/svg">
<g clip-path="url(#clip0_8118_6)">
<path d="M98.9138 23.4358L85.0724 37.2772C82.2764 69.6911 54.9408 94.8834 22.226 94.8834C15.5043 94.8834 9.96313 93.8186 5.75516 91.717C2.36193 90.018 0.973165 88.1988 0.625972 87.6803C0.31639 87.216 0.115728 86.6878 0.038983 86.135C-0.0377624 85.5823 0.011393 85.0194 0.182774 84.4883C0.354155 83.9573 0.643331 83.4718 1.0287 83.0682C1.41406 82.6646 1.88565 82.3533 2.40823 82.1576C2.52859 82.1113 13.6295 77.8478 20.6798 69.7327C16.7699 66.5181 13.3567 62.743 10.551 58.53C4.8108 50.0076 -1.61458 35.2033 0.366735 13.0802C0.429536 12.3772 0.691901 11.7068 1.12293 11.148C1.55396 10.5891 2.13571 10.1651 2.79967 9.92575C3.46362 9.68643 4.18214 9.64182 4.8706 9.79717C5.55906 9.95252 6.18879 10.3014 6.68564 10.8026C6.84766 10.9646 22.0917 26.1254 40.729 31.0416V28.2224C40.7219 25.2662 41.3064 22.3384 42.4481 19.6114C43.5897 16.8845 45.2655 14.4136 47.3766 12.3441C49.4269 10.2968 51.8665 8.68076 54.5514 7.59152C57.2364 6.50227 60.1123 5.96183 63.0095 6.0021C66.896 6.04043 70.7065 7.08373 74.0705 9.03056C77.4344 10.9774 80.2374 13.7615 82.2069 17.1123H96.2937C97.0266 17.1117 97.7432 17.3286 98.3527 17.7355C98.9623 18.1424 99.4374 18.721 99.7179 19.398C99.9985 20.0751 100.072 20.8202 99.9287 21.5389C99.7855 22.2577 99.4324 22.9178 98.9138 23.4358Z" fill="#F3F1E5"/>
</g>
<defs>
<clipPath id="clip0_8118_6">
<rect width="100" height="100" fill="white"/>
</clipPath>
</defs>
</svg>
