<svg width="100" height="100" viewBox="0 0 100 100" fill="none" xmlns="http://www.w3.org/2000/svg">
<path fill-rule="evenodd" clip-rule="evenodd" d="M6.40111 11.0025L2.63206 10.8029L2.61499 14.6093L2.61308 15.4028C2.61195 16.0209 2.61045 17.0879 2.60895 18.8856C2.60595 22.4809 2.60295 29.0007 2.60295 40.7004V42.2032L7.06875 46.7072C5.30051 47.8292 3.5239 48.9382 1.73914 50.0344L0.0139756 51.0941L0 76.186L20.5988 96.974L21.9511 97.0631C47.2265 98.7282 73.2207 96.8807 97.5757 88.4066L100 87.5631V57.4113L94.7311 52.0974C95.6288 51.2036 96.5245 50.3022 97.4137 49.3953L98.453 48.3351V46.8442C98.453 45.8151 98.4561 40.4259 98.459 35.2916L98.466 23.7786L77.2493 2.38098L75.1375 3.09446C53.21 10.5029 29.6917 12.2357 6.40111 11.0025ZM76.2804 6.53477L94.8675 25.2805C94.8675 25.2805 94.8555 44.7831 94.8555 46.8442C93.972 47.7454 93.0811 48.6419 92.1871 49.5318C91.3311 50.384 90.4721 51.2299 89.6142 52.0679L96.4025 58.9142V84.9767C72.6332 93.2472 47.1489 95.0872 22.1856 93.4425L3.59837 74.6847L3.61037 53.1332C5.64296 51.8848 7.66531 50.6198 9.67707 49.3376C10.7153 48.6761 11.7506 48.0099 12.7831 47.3392L6.20048 40.7004C6.20048 28.2821 6.20386 21.7007 6.20704 18.2586C6.20985 15.215 6.21249 14.6256 6.21249 14.6256C7.41045 14.6891 8.60954 14.7448 9.80949 14.7924C32.2202 15.6819 54.9312 13.7478 76.2804 6.53477Z" fill="#F3F1E5"/>
<path d="M87.6605 34.7624V45.2116C76.0644 56.3623 64.4684 66.0858 52.8844 74.7573C64.9961 73.947 77.0956 71.9999 89.2193 68.4685C89.2193 72.3264 89.2193 76.1724 89.2193 80.0304C72.5028 84.9163 55.7984 86.7668 39.0938 86.7668C35.8561 86.7668 32.6184 86.6942 29.3806 86.5611V76.1118C40.9766 68.6739 52.5726 60.4621 64.1567 51.0651C55.8224 52.1414 47.488 52.6011 39.1537 52.6011C36.7554 52.6011 34.3691 52.5648 31.9707 52.4921C31.9707 48.6342 31.9707 44.7882 31.9707 40.9302C34.345 41.0029 36.7075 41.0391 39.0819 41.0391C55.2707 41.0391 71.4595 39.3096 87.6485 34.7502L87.6605 34.7624Z" fill="#F3F1E5"/>
</svg>
